<?xml version="1.0" encoding="utf-8"?>
<!-- Generator: Adobe Illustrator 16.0.0, SVG Export Plug-In . SVG Version: 6.00 Build 0)  -->
<!DOCTYPE svg PUBLIC "-//W3C//DTD SVG 1.1 Tiny//EN" "http://www.w3.org/Graphics/SVG/1.1/DTD/svg11-tiny.dtd">
<svg version="1.1" fill="#f8f8f2" baseProfile="tiny" id="Layer_1" xmlns="http://www.w3.org/2000/svg" xmlns:xlink="http://www.w3.org/1999/xlink"
	 x="0px" y="0px" width="24px" height="24px" viewBox="0 0 24 24" xml:space="preserve">
<g>
	<g>
		<path d="M1.526,4.016c0.284,0,0.572,0.08,0.826,0.25l9.662,6.428l9.632-6.427c0.688-0.458,1.614-0.272,2.071,0.415
			c0.458,0.688,0.272,1.615-0.414,2.073l-10.459,6.979c-0.501,0.334-1.155,0.335-1.656,0.001L0.699,6.756
			C0.011,6.299-0.176,5.371,0.281,4.684C0.569,4.25,1.043,4.016,1.526,4.016z"/>
	</g>
	<g>
		<path d="M1.526,10.016c0.284,0,0.572,0.08,0.826,0.25l9.662,6.428l9.632-6.427c0.688-0.458,1.614-0.272,2.071,0.415
			c0.458,0.688,0.272,1.615-0.414,2.073l-10.459,6.979c-0.501,0.334-1.155,0.335-1.656,0.001L0.699,12.756
			c-0.688-0.457-0.875-1.385-0.418-2.072C0.569,10.25,1.043,10.016,1.526,10.016z"/>
	</g>
</g>
</svg>
