<svg fill="#f8f8f2" baseProfile="tiny" id="Layer_1" xmlns="http://www.w3.org/2000/svg" width="24" height="24" viewBox="0 0 24 24"><path d="M1.526 4.016c.284 0 .572.08.826.25l9.662 6.428 9.632-6.427a1.495 1.495 0 0 1 1.657 2.488l-10.459 6.979a1.494 1.494 0 0 1-1.656.001L.699 6.756a1.494 1.494 0 0 1 .827-2.74z"/><path d="M1.526 10.016c.284 0 .572.08.826.25l9.662 6.428 9.632-6.427a1.495 1.495 0 0 1 1.657 2.488l-10.459 6.979a1.494 1.494 0 0 1-1.656.001L.699 12.756a1.494 1.494 0 0 1 .827-2.74z"/></svg>