<svg xmlns="http://www.w3.org/2000/svg" width="28" height="20" viewBox="0 0 700.08435 482.89237"><path id="path1" transform="translate(0 -569.47)" d="M117.513 1051.632c-12.148-2.9-29.728-18.152-49.222-42.704-39.57-49.84-61.057-105.74-67.385-175.313-1.218-13.39-1.205-47.269.022-59.666 5.786-58.453 26.24-108.792 63.77-156.944 11.494-14.746 30.541-34.063 39.664-40.225 12.908-8.718 21.033-9.423 28.83-2.501 3.18 2.823 3.912 4.136 4.319 7.755.767 6.814-2.726 12.138-18.968 28.914-22.696 23.443-33.167 36.493-44.766 55.792-26.338 43.825-37.608 89.914-35.993 147.188.861 30.512 4.126 53.004 11.326 78.02 6.485 22.53 14.269 40.696 25.925 60.506 11.704 19.89 21.539 32.474 41.205 52.724 17.254 17.765 21.54 23.935 21.54 31.011 0 7.04-4.97 13.406-11.983 15.354-3.875 1.076-4.138 1.079-8.284.089zm455.44.266c-3.671-.78-10.237-7.841-10.978-11.807-1.193-6.39 2.609-12.082 20.332-30.439 8.722-9.033 19.453-20.907 23.847-26.387 32.153-40.091 50.016-84.701 54.782-136.805 1.469-16.063.71-57.449-1.34-72.968-4.29-32.507-12.212-59.1-25.931-87.064-13.128-26.759-26.71-45.737-49.649-69.375-15.404-15.874-19.944-21.67-21.493-27.436-1.518-5.652-.427-9.849 3.812-14.664 5.815-6.606 12.456-7.195 22.85-2.027 12.582 6.255 28.887 22.59 47.813 47.9 38.078 50.921 57.717 106.941 62.437 178.102 4.01 60.461-10.657 121.663-41.304 172.348-21.154 34.986-53.43 70.837-70.615 78.439-4.492 1.987-10.937 2.953-14.562 2.183zm-380.083-36.867c-10.287-3.119-16.25-13.4-13.77-23.742 1.534-6.394 7.953-12.969 14.198-14.541 6.292-1.585 331.733-1.585 338.024 0 6.438 1.62 12.762 8.216 14.17 14.775 1.843 8.597-2.02 17.395-9.526 21.694l-3.968 2.273-168.281.16c-92.555.087-169.436-.192-170.847-.62zm128.19-79.11c-31.252-11.367-57.254-33.52-70.564-60.118-7.4-14.788-11.695-32.697-11.692-48.75.005-21.703 8.491-42.384 34.347-83.697 19.257-30.77 22.538-36.378 28.2-48.196 7.536-15.727 10.02-25.067 10.178-38.264.15-12.611-1.74-20.093-7.548-29.88-4.123-6.947-13.4-17.404-17.166-19.352-6.14-3.175-7.413-7.488-3.053-10.345 6.896-4.518 25.735-1.653 43.044 6.547 19.585 9.277 34.02 22.599 43.42 40.07 7.245 13.466 10.166 23.785 15.08 53.273 5.453 32.722 10.858 43.104 21.789 41.848 5.792-.666 9.407-2.864 11.846-7.204 3.885-6.913 2.22-16.375-5.638-32.034-6.42-12.793-6.023-16.659 1.507-14.668 3.9 1.032 16.557 11.37 25.32 20.681 21.924 23.298 32.835 44.465 38.082 73.877 2.752 15.426 2.981 41.006.487 54.375-3.147 16.865-9.524 32.784-18.588 46.398-10.107 15.18-31.19 34.386-46.519 42.376-6.922 3.608-9.325 3.827-12.718 1.158-4.22-3.32-3.329-5.628 6-15.538 14.018-14.889 21.174-25.474 25.326-37.457 6.406-18.489 3.217-44.265-7.508-60.694-4.442-6.805-10.953-12.806-13.895-12.806-1.61 0-1.343 2.125 1.643 13.062 1.046 3.832 1.902 8.516 1.902 10.408 0 10.008-14.126 17.263-26.57 13.645-10.111-2.94-14.569-12.11-13.23-27.22.414-4.668.785-13.153.823-18.854.068-10.052-.029-10.56-3.21-16.835-6.203-12.232-20.548-24.83-28.271-24.83-3.33 0-3.605.2-3.605 2.648 0 1.644.924 3.512 2.435 4.922 8.001 7.468 9.507 22.771 3.57 36.282-3.669 8.35-7.806 13.079-21.937 25.073-18.592 15.783-24.583 23.298-28.299 35.497-1.719 5.644-1.896 7.94-1.412 18.282.812 17.361 4.35 28.87 12.62 41.048 6.35 9.35 13.785 15.283 23.883 19.055 4.856 1.815 5.39 2.283 5.39 4.727 0 2.832-2.153 4.693-5.329 4.606-.936-.026-5.499-1.428-10.14-3.116z" fill="#f8f8f2"/></svg>