<svg id="Layer_1" fill="#337AB7" xmlns="http://www.w3.org/2000/svg" width="24" height="24" viewBox="3 3 24 24"><path id="Github__x28_alt_x29__3_" d="M20.528 5.8c.308.705.514 1.885.212 2.745 1.226 1.054 1.66 3.609 1.058 5.707 1.757.137 3.848-.062 5.202.476-1.264-.163-2.994-.48-4.617-.373-.308.023-.771-.012-.748.422 1.894.151 3.769.307 5.315.792-1.541-.25-3.4-.63-5.315-.686-.78 1.552-2.371 2.322-4.567 2.484.235.515.695.706.797 1.541.164 1.225-.245 3.028.161 3.849.204.396.531.402.746.733-.537.646-1.87-.07-2.017-.733-.258-1.147.396-2.924-.322-3.701.05 1.248-.287 3.004.05 4.123.14.442.535.608.434 1.007-2.5.255-1.455-3.231-1.866-5.288-.375.035-.211.562-.212.791-.01 2.013.411 4.76-1.749 4.495-.066-.419.293-.563.425-.954.397-1.126-.073-2.813.106-4.174-.824.628.09 2.794-.423 3.913-.293.636-1.244.917-1.967.635.094-.475.587-.401.797-.847.292-.625.001-1.518.105-2.434-1.527.306-2.71-.044-3.293-1.005-.257-.427-.319-.939-.634-1.316-.307-.379-.808-.427-.958-.944 1.895-.461 1.966 1.946 3.667 1.998.524.021.793-.146 1.275-.259.138-.608.423-1.056.847-1.38-2.112-.284-3.858-.943-4.669-2.533a28.683 28.683 0 0 0-5.315.745c1.483-.536 3.303-.733 5.259-.794-.118-.693-1.126-.503-1.75-.479-1.169.047-2.636.196-3.562.372 1.346-.479 3.224-.419 5.042-.423-.554-1.745-.363-4.518.854-5.552-.344-.866-.237-2.276.21-2.953 1.357.059 2.177.647 3.031 1.217 1.055-.302 2.16-.454 3.609-.374.609.034 1.24.306 1.693.267.447-.044.94-.547 1.382-.745.567-.248 1.052-.343 1.707-.365z"/></svg>