<svg fill="#036" id="Layer_1" xmlns="http://www.w3.org/2000/svg" width="24" height="24" viewBox="0 0 24 24"><path d="M6.834 1.438c-.87 0-1.573.703-1.573 1.574a1.572 1.572 0 1 0 3.146 0c0-.871-.702-1.574-1.573-1.574zm10.337 0c-.869 0-1.572.703-1.572 1.574s.702 1.574 1.572 1.574a1.573 1.573 0 1 0 0-3.148zM12.003 0c-.869 0-1.573.703-1.573 1.574A1.574 1.574 0 1 0 12.003 0zm8.412 5.756a24.13 24.13 0 0 1-3.134.947.613.613 0 0 0-.432.377c-.72 1.971-2.558 3.846-4.485 5.813-.077.074-.186.17-.362.17a.497.497 0 0 1-.362-.17c-1.927-1.967-3.765-3.836-4.484-5.807a.617.617 0 0 0-.431-.377 24.047 24.047 0 0 1-3.137-.955.485.485 0 0 0-.473.069.484.484 0 0 0-.191.433c.163 1.641.811 3.242 1.979 4.922 1.098 1.578 2.531 3.039 3.916 4.451 2.553 2.604 4.963 5.063 5.176 7.914a.492.492 0 0 0 .491.457h2.998a.5.5 0 0 0 .357-.152c.093-.1.142-.23.135-.365-.094-1.906-.811-3.814-2.194-5.836-.29-.422-.6-.834-.923-1.238a.357.357 0 0 1 .025-.471l.301-.307c1.385-1.414 2.817-2.875 3.916-4.453 1.168-1.678 1.816-3.271 1.979-4.91l-.665-.512zM8.786 17.846a.458.458 0 0 0-.351-.15.49.49 0 0 0-.407.232c-1.262 1.918-1.913 3.73-2.002 5.551A.497.497 0 0 0 6.52 24h2.993a.5.5 0 0 0 .494-.459c.065-.877.339-1.758.836-2.682a.694.694 0 0 0-.061-.748c-.494-.641-1.098-1.326-1.997-2.264v-.001zm3.22-10.551c.939 0 1.484-.059 1.677-.059a.458.458 0 0 1 .417.639c-.125.334-.693 1.533-1.751 2.563a.49.49 0 0 1-.346.135.482.482 0 0 1-.345-.135c-1.058-1.029-1.625-2.229-1.75-2.563a.459.459 0 0 1 .416-.639c.191 0 .736.059 1.676.059h.006z"/></svg>