<?xml version="1.0" encoding="utf-8"?>
<!-- Generator: Adobe Illustrator 16.0.0, SVG Export Plug-In . SVG Version: 6.00 Build 0)  -->
<!DOCTYPE svg PUBLIC "-//W3C//DTD SVG 1.1//EN" "http://www.w3.org/Graphics/SVG/1.1/DTD/svg11.dtd">
<svg version="1.1" fill="#003366" id="Layer_1" xmlns="http://www.w3.org/2000/svg" xmlns:xlink="http://www.w3.org/1999/xlink" x="0px" y="0px"
	 width="24px" height="24px" viewBox="0 0 24 24" enable-background="new 0 0 24 24" xml:space="preserve">
<path d="M6.834,1.438c-0.87,0-1.573,0.703-1.573,1.574s0.704,1.574,1.573,1.574c0.87,0,1.573-0.703,1.573-1.574
	S7.705,1.438,6.834,1.438z M17.171,1.438c-0.869,0-1.572,0.703-1.572,1.574s0.702,1.574,1.572,1.574
	c0.868,0,1.573-0.703,1.573-1.574S18.039,1.439,17.171,1.438z M12.003,0c-0.869,0-1.573,0.703-1.573,1.574s0.704,1.576,1.573,1.576
	c0.87,0,1.574-0.705,1.574-1.576S12.874,0,12.003,0z M20.415,5.756c-1.064,0.408-2.147,0.717-3.134,0.947
	c-0.202,0.047-0.364,0.195-0.432,0.377c-0.72,1.971-2.558,3.846-4.485,5.813c-0.077,0.074-0.186,0.17-0.362,0.17
	c-0.177,0-0.284-0.094-0.362-0.17c-1.927-1.967-3.765-3.836-4.484-5.807c-0.068-0.18-0.23-0.33-0.431-0.377
	C5.737,6.48,4.652,6.162,3.588,5.754C3.531,5.732,3.472,5.721,3.413,5.721c-0.107,0-0.21,0.033-0.298,0.102
	C2.978,5.926,2.907,6.094,2.924,6.256c0.163,1.641,0.811,3.242,1.979,4.922c1.098,1.578,2.531,3.039,3.916,4.451
	c2.553,2.604,4.963,5.063,5.176,7.914C14.014,23.801,14.228,24,14.486,24h2.998c0.136,0,0.264-0.057,0.357-0.152
	c0.093-0.1,0.142-0.23,0.135-0.365c-0.094-1.906-0.811-3.814-2.194-5.836c-0.29-0.422-0.6-0.834-0.923-1.238
	c-0.132-0.164-0.076-0.369,0.025-0.471c0.099-0.102,0.198-0.203,0.301-0.307c1.385-1.414,2.817-2.875,3.916-4.453
	c1.168-1.678,1.816-3.271,1.979-4.91L20.415,5.756z M8.786,17.846c-0.071-0.074-0.175-0.15-0.351-0.15
	c-0.224,0-0.357,0.154-0.407,0.232c-1.262,1.918-1.913,3.73-2.002,5.551c-0.006,0.135,0.043,0.268,0.136,0.367
	C6.254,23.943,6.385,24,6.52,24h2.993c0.257,0,0.475-0.203,0.494-0.459c0.065-0.877,0.339-1.758,0.836-2.682
	c0.172-0.32,0.038-0.621-0.061-0.748c-0.494-0.641-1.098-1.326-1.997-2.264V17.846z M12.006,7.295c0.939,0,1.484-0.059,1.677-0.059
	c0.232,0,0.453,0.191,0.453,0.457c0,0.078-0.018,0.135-0.036,0.182c-0.125,0.334-0.693,1.533-1.751,2.563
	c-0.119,0.113-0.253,0.135-0.346,0.135h0c-0.093,0-0.227-0.021-0.345-0.135c-1.058-1.029-1.625-2.229-1.75-2.563
	C9.889,7.828,9.87,7.771,9.87,7.693c0-0.266,0.222-0.457,0.454-0.457c0.191,0,0.736,0.059,1.676,0.059H12.006z"/>
</svg>
