<?xml version="1.0" encoding="utf-8"?>
<!-- Generator: Adobe Illustrator 16.0.0, SVG Export Plug-In . SVG Version: 6.00 Build 0)  -->
<!DOCTYPE svg PUBLIC "-//W3C//DTD SVG 1.1//EN" "http://www.w3.org/Graphics/SVG/1.1/DTD/svg11.dtd">
<svg version="1.1" id="Layer_1" xmlns="http://www.w3.org/2000/svg" xmlns:xlink="http://www.w3.org/1999/xlink" x="0px" y="0px"
	 width="24px" height="24px" viewBox="0 0 24 24" enable-background="new 0 0 24 24" xml:space="preserve">
<g>
	<path d="M8.341,2.732V0.887C8.341,0.397,8.738,0,9.227,0h2.483c0.491,0,0.887,0.397,0.887,0.887v1.845H8.341z M20.203,12.855
		l1.988-3.523c0.149-0.265,0.149-0.594,0-0.86l-1.988-3.523c-0.155-0.274-0.447-0.445-0.762-0.445H2.571
		c-0.482,0-0.875,0.393-0.875,0.875v7.046c0,0.482,0.393,0.875,0.875,0.875H19.44C19.756,13.301,20.047,13.13,20.203,12.855
		L20.203,12.855z M8.341,15.073v8.04C8.341,23.603,8.738,24,9.227,24h2.483c0.491,0,0.887-0.397,0.887-0.887v-8.04H8.341z
		 M8.341,15.073"/>
</g>
</svg>
