<?xml version="1.0" encoding="utf-8"?>
<!-- Generator: Adobe Illustrator 16.0.0, SVG Export Plug-In . SVG Version: 6.00 Build 0)  -->
<!DOCTYPE svg PUBLIC "-//W3C//DTD SVG 1.1//EN" "http://www.w3.org/Graphics/SVG/1.1/DTD/svg11.dtd">
<svg version="1.1" fill="#FF5F10" id="Layer_1" xmlns="http://www.w3.org/2000/svg" xmlns:xlink="http://www.w3.org/1999/xlink" x="0px" y="0px"
	 width="24px" height="24px" viewBox="0 0 24 24" enable-background="new 0 0 24 24" xml:space="preserve">
<path d="M16.924,17.367c0.068,0.004,0.142,0.012,0.215,0.012c1.035,0,2.071-0.006,3.106,0.005c0.227,0.002,0.294-0.076,0.282-0.293
	c-0.015-0.282-0.003-0.567-0.003-0.917c1.175,0.865,2.311,1.7,3.476,2.558c-1.156,0.852-2.292,1.688-3.476,2.56
	c0-0.329,0-0.603,0-0.874c0-0.352,0-0.354-0.342-0.354c-6.619,0-13.237,0-19.857,0c-0.318,0-0.318,0-0.318-0.322
	c0-0.699,0.008-1.396-0.006-2.093c-0.006-0.228,0.068-0.277,0.285-0.277c3.56,0.006,7.117,0.013,10.675,0.002
	c1.825-0.004,3.265-0.76,4.218-2.332c1.718-2.84-0.074-6.559-3.366-7.037c-2.543-0.37-4.907,1.337-5.337,3.923
	c-0.046,0.27-0.049,0.546-0.076,0.87c0.417-0.057,0.794-0.109,1.221-0.166c-0.669,1.292-1.313,2.54-1.969,3.806
	c-1.003-1.035-1.991-2.053-2.958-3.048c0.243-0.042,0.565-0.087,0.884-0.154c0.062-0.013,0.15-0.111,0.148-0.167
	c-0.019-0.677,0.027-1.346,0.16-2.01c0.005-0.021-0.005-0.043-0.012-0.083c-0.646-0.111-1.245-0.344-1.79-0.719
	c-1.328-0.92-2.023-2.63-1.696-4.19c0.354-1.7,1.637-2.97,3.294-3.284c1.074-0.202,2.069-0.009,2.994,0.559
	c0.164,0.1,0.263,0.115,0.37-0.06c0.063-0.103,0.157-0.186,0.266-0.311c0.134,0.542,0.261,1.05,0.385,1.557
	c0.043,0.171,0.075,0.345,0.126,0.513C7.876,5.227,7.82,5.308,7.628,5.296C7.071,5.257,6.513,5.224,5.955,5.187
	c-0.138-0.01-0.274-0.024-0.451-0.042c0.138-0.174,0.263-0.329,0.399-0.5C5.602,4.417,5.271,4.302,4.926,4.246
	c-1.67-0.273-3.142,1.01-3.108,2.7c0.025,1.296,1.119,2.456,2.41,2.566c0.168,0.014,0.226-0.071,0.29-0.196
	c0.917-1.757,2.295-2.999,4.17-3.645c4.338-1.496,8.867,1.185,9.703,5.572c0.412,2.159-0.058,4.133-1.367,5.9
	c-0.037,0.05-0.069,0.102-0.102,0.153c-0.007,0.009,0.002,0.029,0.008,0.068L16.924,17.367z"/>
</svg>
