<svg fill="#FF5F10" id="Layer_1" xmlns="http://www.w3.org/2000/svg" width="24" height="24" viewBox="0 0 24 24"><path d="M16.924 17.367c.068.004.142.012.215.012 1.035 0 2.071-.006 3.106.005.227.002.294-.076.282-.293-.015-.282-.003-.567-.003-.917L24 18.732l-3.476 2.56v-.874c0-.352 0-.354-.342-.354H.325c-.318 0-.318 0-.318-.322 0-.699.008-1.396-.006-2.093-.006-.228.068-.277.285-.277 3.56.006 7.117.013 10.675.002 1.825-.004 3.265-.76 4.218-2.332 1.718-2.84-.074-6.559-3.366-7.037-2.543-.37-4.907 1.337-5.337 3.923-.046.27-.049.546-.076.87.417-.057.794-.109 1.221-.166l-1.969 3.806a2972.368 2972.368 0 0 0-2.958-3.048c.243-.042.565-.087.884-.154.062-.013.15-.111.148-.167a8.912 8.912 0 0 1 .16-2.01c.005-.021-.005-.043-.012-.083a4.442 4.442 0 0 1-1.79-.719C.756 9.337.061 7.627.388 6.067c.354-1.7 1.637-2.97 3.294-3.284 1.074-.202 2.069-.009 2.994.559.164.1.263.115.37-.06.063-.103.157-.186.266-.311.134.542.261 1.05.385 1.557.043.171.075.345.126.513.053.186-.003.267-.195.255-.557-.039-1.115-.072-1.673-.109-.138-.01-.274-.024-.451-.042l.399-.5a2.143 2.143 0 0 0-.977-.399 2.66 2.66 0 0 0-3.108 2.7c.025 1.296 1.119 2.456 2.41 2.566.168.014.226-.071.29-.196.917-1.757 2.295-2.999 4.17-3.645 4.338-1.496 8.867 1.185 9.703 5.572.412 2.159-.058 4.133-1.367 5.9-.037.05-.069.102-.102.153-.007.009.002.029.008.068l-.006.003z"/></svg>