<svg id="Layer_1" xmlns="http://www.w3.org/2000/svg" width="24" height="24" viewBox="0 0 24 24"><path d="M0 12v12h24V0H0v12zm13.606-5.929c.26.063.51.141.746.231.515.197 1.213.431 1.68.898.189.189.167.245-.266.867-.255.355-.5.7-.544.756-.056.056-.196-.044-.645-.255-.904-.425-1.732-.811-2.645-.811-1.276 0-1.932.488-1.932 1.455 0 .89.611 1.289 2.778 1.845 2.855.733 3.866 1.7 3.821 3.678-.028 1.256-.982 2.542-2.095 3.029-1.264.554-2.749.476-4.042.076a10.687 10.687 0 0 1-2.094-.887c-.24-.136-.569-.343-.774-.547-.225-.225-.11-.268.095-.527.156-.21.434-.543.611-.744l.311-.378.745.499c1.078.723 1.845.979 2.932.99 1.078.011 1.623-.21 2.023-.801.21-.3.253-.488.2-.833-.078-.666-.601-1.089-1.813-1.444-2.666-.801-3.133-.967-3.556-1.268-.532-.389-.954-.922-1.132-1.444-.176-.535-.155-1.657.057-2.257.784-2.229 3.468-2.635 5.539-2.129v.001z"/></svg>