<?xml version="1.0" encoding="utf-8"?>
<!-- Generator: Adobe Illustrator 16.0.0, SVG Export Plug-In . SVG Version: 6.00 Build 0)  -->
<!DOCTYPE svg PUBLIC "-//W3C//DTD SVG 1.1//EN" "http://www.w3.org/Graphics/SVG/1.1/DTD/svg11.dtd">
<svg version="1.1" id="Layer_1" xmlns="http://www.w3.org/2000/svg" xmlns:xlink="http://www.w3.org/1999/xlink" x="0px" y="0px"
	 width="24px" height="24px" viewBox="0 0 24 24" enable-background="new 0 0 24 24" xml:space="preserve">
<path d="M0,12V24h24V0H0V12L0,12z M13.606,6.071c0.26,0.063,0.51,0.141,0.746,0.231c0.515,0.197,1.213,0.431,1.68,0.898
	c0.189,0.189,0.167,0.245-0.266,0.867c-0.255,0.355-0.5,0.7-0.544,0.756c-0.056,0.056-0.196-0.044-0.645-0.255
	c-0.904-0.425-1.732-0.811-2.645-0.811C10.656,7.757,10,8.245,10,9.212c0,0.89,0.611,1.289,2.778,1.845
	c2.855,0.733,3.866,1.7,3.821,3.678c-0.028,1.256-0.982,2.542-2.095,3.029c-1.264,0.554-2.749,0.476-4.042,0.076
	c-0.709-0.22-1.448-0.518-2.094-0.887c-0.24-0.136-0.569-0.343-0.774-0.547c-0.225-0.225-0.11-0.268,0.095-0.527
	c0.156-0.21,0.434-0.543,0.611-0.744l0.311-0.378l0.745,0.499c1.078,0.723,1.845,0.979,2.932,0.99
	c1.078,0.011,1.623-0.21,2.023-0.801c0.21-0.3,0.253-0.488,0.2-0.833c-0.078-0.666-0.601-1.089-1.813-1.444
	c-2.666-0.801-3.133-0.967-3.556-1.268c-0.532-0.389-0.954-0.922-1.132-1.444C7.834,9.921,7.855,8.799,8.067,8.199
	c0.784-2.229,3.468-2.635,5.539-2.129V6.071z"/>
</svg>
