<?xml version="1.0" encoding="utf-8"?>
<!-- Generator: Adobe Illustrator 16.0.0, SVG Export Plug-In . SVG Version: 6.00 Build 0)  -->
<!DOCTYPE svg PUBLIC "-//W3C//DTD SVG 1.1//EN" "http://www.w3.org/Graphics/SVG/1.1/DTD/svg11.dtd">
<svg version="1.1" id="Layer_1" fill="#337AB7" xmlns="http://www.w3.org/2000/svg" xmlns:xlink="http://www.w3.org/1999/xlink" x="0px" y="0px"
	 width="24px" height="24px" viewBox="0 0 24 24" enable-background="new 0 0 24 24" xml:space="preserve">
<g>
	<path d="M4.139,5.223c1.535,1.918,4.029,3.721,7.719,3.916c-0.203-0.832-0.08-2.977,1.527-3.916
		c1.609-0.938,3.326-1.002,4.918,0.494c0.715-0.104,2.053-0.668,2.371-0.891c-0.207,0.779-1.033,1.781-1.631,2.018
		c0.549,0,1.754-0.322,2.123-0.514c-0.512,0.811-1.406,1.588-1.896,1.91c0.729,6.42-6.959,14.848-16.436,9.523
		c2.076,0.24,4.26-0.453,5.539-1.6c-1.611-0.035-3.131-0.832-3.873-2.473c0.807,0.248,1.627,0.195,2.068-0.178
		c-0.752-0.082-3.215-1.264-3.215-3.807c0.561,0.457,1.264,0.652,1.891,0.525C4.219,9.637,2.818,7.45,4.139,5.223z"/>
</g>
</svg>
