<svg id="Layer_1" fill="#337AB7" xmlns="http://www.w3.org/2000/svg" width="24" height="24" viewBox="0 0 24 24"><path d="M4.139 5.223c1.535 1.918 4.029 3.721 7.719 3.916-.203-.832-.08-2.977 1.527-3.916 1.609-.938 3.326-1.002 4.918.494.715-.104 2.053-.668 2.371-.891-.207.779-1.033 1.781-1.631 2.018.549 0 1.754-.322 2.123-.514-.512.811-1.406 1.588-1.896 1.91.729 6.42-6.959 14.848-16.436 9.523 2.076.24 4.26-.453 5.539-1.6-1.611-.035-3.131-.832-3.873-2.473.807.248 1.627.195 2.068-.178-.752-.082-3.215-1.264-3.215-3.807.561.457 1.264.652 1.891.525-1.025-.593-2.426-2.78-1.105-5.007z"/></svg>