<?xml version="1.0" encoding="utf-8"?>
<!-- Generator: Adobe Illustrator 16.0.0, SVG Export Plug-In . SVG Version: 6.00 Build 0)  -->
<!DOCTYPE svg PUBLIC "-//W3C//DTD SVG 1.1//EN" "http://www.w3.org/Graphics/SVG/1.1/DTD/svg11.dtd">
<svg version="1.1" id="Layer_1" xmlns="http://www.w3.org/2000/svg" xmlns:xlink="http://www.w3.org/1999/xlink" x="0px" y="0px"
	 width="24px" height="24px" viewBox="0 0 24 24" enable-background="new 0 0 24 24" xml:space="preserve">
<path d="M12.728,10.898l-0.061-0.166c-0.014,0.008-0.028,0.016-0.044,0.023L12.728,10.898L12.728,10.898z M13.17,10.544
	l-0.115-0.132c-0.011,0.013-0.023,0.024-0.033,0.037L13.17,10.544z M13.456,10.053l-0.155-0.081
	c-0.005,0.015-0.012,0.031-0.017,0.046L13.456,10.053z M13.545,9.492l-0.176-0.02c0,0.017,0.001,0.033,0.001,0.05L13.545,9.492z
	 M13.425,8.937l-0.171,0.044c0.007,0.015,0.014,0.031,0.02,0.046L13.425,8.937z M11.104,10.793l0.121-0.127
	c-0.014-0.01-0.027-0.02-0.04-0.03L11.104,10.793L11.104,10.793z M12.185,11.069l0.003-0.176c-0.017,0.003-0.032,0.006-0.049,0.007
	L12.185,11.069z M11.619,11.032l0.067-0.163c-0.016-0.003-0.032-0.008-0.048-0.012L11.619,11.032z M11.226,10.666
	c0.124,0.085,0.263,0.15,0.413,0.191l0.077-0.706L11.226,10.666L11.226,10.666z M12.651,8.134l-0.097,0.148
	c0.016,0.007,0.03,0.014,0.044,0.022L12.651,8.134L12.651,8.134z M10.666,8.758l0.137,0.108c0.008-0.015,0.017-0.028,0.026-0.042
	L10.666,8.758L10.666,8.758z M10.475,9.292l0.167,0.052c0.002-0.017,0.004-0.033,0.008-0.049L10.475,9.292z M10.49,9.86l0.174-0.012
	c-0.003-0.016-0.008-0.031-0.011-0.048L10.49,9.86L10.49,9.86z M13.114,8.463L12.97,8.566c0.012,0.011,0.022,0.024,0.034,0.037
	L13.114,8.463z M10.709,10.384l0.158-0.074c-0.01-0.014-0.017-0.028-0.026-0.042L10.709,10.384z M11.686,10.869
	c0.102,0.023,0.206,0.038,0.314,0.038c0.047,0,0.094-0.002,0.14-0.007l-0.184-0.686L11.686,10.869z M12.102,7.994l-0.036,0.173
	c0.016,0.001,0.033,0.001,0.05,0.002L12.102,7.994L12.102,7.994z M11.537,8.061l0.029,0.173c0.016-0.005,0.032-0.01,0.047-0.015
	L11.537,8.061L11.537,8.061z M11.036,8.328l0.089,0.151c0.013-0.011,0.026-0.02,0.039-0.03L11.036,8.328z M12.667,10.733
	c0.134-0.075,0.253-0.172,0.355-0.285l-0.597-0.383L12.667,10.733z M12.417,9.597c0,0.23-0.187,0.417-0.417,0.417
	s-0.417-0.187-0.417-0.417S11.77,9.18,12,9.18S12.417,9.367,12.417,9.597z M10.666,9.848c0.035,0.151,0.096,0.293,0.176,0.42
	l0.533-0.47L10.666,9.848z M10.643,9.344c-0.009,0.063-0.015,0.126-0.015,0.191c0,0.09,0.009,0.178,0.026,0.265l0.667-0.246
	L10.643,9.344z M11.185,10.636l0.326-0.63l-0.643,0.303C10.955,10.436,11.063,10.545,11.185,10.636z M12,11.436
	c1.049,0,1.9-0.853,1.9-1.9c0-1.048-0.854-1.902-1.9-1.902c-1.047,0-1.901,0.853-1.901,1.902C10.1,10.583,10.953,11.436,12,11.436z
	 M12,7.957c0.871,0,1.578,0.709,1.578,1.579S12.87,11.113,12,11.113c-0.87,0-1.578-0.708-1.578-1.578S11.13,7.957,12,7.957z
	 M10.803,8.867c-0.073,0.131-0.125,0.276-0.153,0.43l0.71,0.011L10.803,8.867z M17.158,17.475C13.541,16.575,12,18.409,12,18.409
	c-0.018,1.836,2.493,5.125,5.574,5.522c3.08,0.397,5.053-1.073,5.053-1.073S20.776,18.375,17.158,17.475z M6.842,17.475
	c-3.618,0.9-5.469,5.384-5.469,5.384s1.973,1.471,5.054,1.073c3.08-0.398,5.591-3.687,5.573-5.522
	C12,18.409,10.46,16.575,6.842,17.475z M12.189,10.893c0.154-0.021,0.3-0.068,0.434-0.136l-0.418-0.573L12.189,10.893L12.189,10.893
	z M1.927,13.684h20.147l0.623-1.869h-2.958l0.58-3.352l0.771-4.463c0,0-2.038-4.001-9.044-4.001C3.529,0,2.911,4.001,2.911,4.001
	l1.352,7.814H1.303L1.927,13.684L1.927,13.684z M12,7.349c1.206,0,2.187,0.981,2.187,2.187c0,1.205-0.981,2.185-2.187,2.185
	S9.813,10.74,9.813,9.536C9.813,8.33,10.794,7.349,12,7.349z M13.369,9.472c-0.007-0.156-0.04-0.306-0.095-0.445l-0.609,0.363
	L13.369,9.472L13.369,9.472z M13.301,9.972c0.046-0.137,0.072-0.284,0.072-0.437c0-0.004-0.002-0.009-0.002-0.013l-0.7,0.12
	L13.301,9.972z M13.055,10.412c0.097-0.117,0.173-0.25,0.229-0.394l-0.696-0.141L13.055,10.412L13.055,10.412z M13.254,8.981
	c-0.062-0.14-0.147-0.268-0.25-0.379L12.568,9.16l0.688-0.18L13.254,8.981z M12.97,8.566c-0.106-0.107-0.232-0.196-0.369-0.263
	l-0.206,0.679L12.97,8.566L12.97,8.566z M11.125,8.479c-0.117,0.097-0.217,0.215-0.296,0.345l0.658,0.267L11.125,8.479L11.125,8.479
	z M12.064,8.166c-0.022,0-0.043-0.003-0.064-0.003c-0.135,0-0.264,0.021-0.387,0.057l0.307,0.641L12.064,8.166L12.064,8.166z
	 M11.566,8.234c-0.146,0.049-0.281,0.122-0.401,0.214l0.517,0.486L11.566,8.234z M12.555,8.281c-0.136-0.06-0.284-0.1-0.44-0.112
	l0.054,0.707L12.555,8.281z"/>
</svg>
