<svg id="Layer_1" xmlns="http://www.w3.org/2000/svg" width="24" height="24" viewBox="0 0 24 24"><path d="M12.728 10.898l-.061-.166c-.014.008-.028.016-.044.023l.105.143zm.442-.354l-.115-.132c-.011.013-.023.024-.033.037l.148.095zm.286-.491l-.155-.081-.017.046.172.035zm.089-.561l-.176-.02.001.05.175-.03zm-.12-.555l-.171.044a.915.915 0 0 1 .02.046l.151-.09zm-2.321 1.856l.121-.127-.04-.03-.081.157zm1.081.276l.003-.176c-.017.003-.032.006-.049.007l.046.169zm-.566-.037l.067-.163-.048-.012-.019.175zm-.393-.366c.124.085.263.15.413.191l.077-.706-.49.515zm1.425-2.532l-.097.148.044.022.053-.17zm-1.985.624l.137.108c.008-.015.017-.028.026-.042l-.163-.066zm-.191.534l.167.052a.385.385 0 0 1 .008-.049l-.175-.003zm.015.568l.174-.012-.011-.048-.163.06zm2.624-1.397l-.144.103c.012.011.022.024.034.037l.11-.14zm-2.405 1.921l.158-.074c-.01-.014-.017-.028-.026-.042l-.132.116zm.977.485a1.42 1.42 0 0 0 .454.031l-.184-.686-.27.655zm.416-2.875l-.036.173.05.002-.014-.175zm-.565.067l.029.173.047-.015-.076-.158zm-.501.267l.089.151.039-.03-.128-.121zm1.631 2.405a1.4 1.4 0 0 0 .355-.285l-.597-.383.242.668zm-.25-1.136a.417.417 0 1 1-.835 0 .417.417 0 0 1 .835 0zm-1.751.251c.035.151.096.293.176.42l.533-.47-.709.05zm-.023-.504a1.342 1.342 0 0 0 .011.456l.667-.246-.678-.21zm.542 1.292l.326-.63-.643.303c.087.127.195.236.317.327zm.815.8a1.902 1.902 0 0 0 0-3.802 1.904 1.904 0 0 0-1.901 1.902 1.905 1.905 0 0 0 1.901 1.9zm0-3.479a1.58 1.58 0 1 1-1.578 1.578c0-.87.708-1.578 1.578-1.578zm-1.197.91a1.395 1.395 0 0 0-.153.43l.71.011-.557-.441zm6.355 8.608c-3.617-.9-5.158.934-5.158.934-.018 1.836 2.493 5.125 5.574 5.522 3.08.397 5.053-1.073 5.053-1.073s-1.851-4.483-5.469-5.383zm-10.316 0c-3.618.9-5.469 5.384-5.469 5.384s1.973 1.471 5.054 1.073c3.08-.398 5.591-3.687 5.573-5.522 0-.001-1.54-1.835-5.158-.935zm5.347-6.582c.154-.021.3-.068.434-.136l-.418-.573-.016.709zM1.927 13.684h20.147l.623-1.869h-2.958l.58-3.352L21.09 4S19.052-.001 12.046-.001C3.529 0 2.911 4.001 2.911 4.001l1.352 7.814h-2.96l.624 1.869zM12 7.349a2.19 2.19 0 0 1 2.187 2.187c0 1.205-.981 2.185-2.187 2.185s-2.187-.981-2.187-2.185A2.19 2.19 0 0 1 12 7.349zm1.369 2.123a1.376 1.376 0 0 0-.095-.445l-.609.363.704.082zm-.068.5c.046-.137.072-.284.072-.437l-.002-.013-.7.12.63.33zm-.246.44c.097-.117.173-.25.229-.394l-.696-.141.467.535zm.199-1.431a1.378 1.378 0 0 0-.25-.379l-.436.558.688-.18-.002.001zm-.284-.415a1.363 1.363 0 0 0-.369-.263l-.206.679.575-.416zm-1.845-.087a1.378 1.378 0 0 0-.296.345l.658.267-.362-.612zm.939-.313c-.022 0-.043-.003-.064-.003-.135 0-.264.021-.387.057l.307.641.144-.695zm-.498.068a1.382 1.382 0 0 0-.401.214l.517.486-.116-.7zm.989.047c-.136-.06-.284-.1-.44-.112l.054.707.386-.595z"/></svg>